<svg width="87" height="29" viewBox="0 0 87 29" fill="none" xmlns="http://www.w3.org/2000/svg">
<path d="M9.96 11.496C11.496 10.888 13.704 10.44 16.616 10.728C15.272 11.944 13.608 12.648 12.072 12.584C11.048 12.552 10.376 12.232 10.024 11.592C9.992 11.56 9.96 11.528 9.96 11.496ZM22.952 15.144C23.72 18.824 21.288 23.816 17.512 26.28C14.056 28.552 9 28.616 6.248 26.44C4.936 25.416 3.656 23.496 4.904 20.168C5.608 18.28 6.696 17.032 7.976 16.264L8.392 16.04C12.008 14.12 16.616 15.528 16.872 15.624C17.128 15.688 17.384 15.56 17.448 15.304C17.544 15.048 17.416 14.792 17.16 14.728C17.096 14.696 11.752 13.16 7.656 15.368C7.016 15.72 4.392 16.456 2.696 15.4C1.704 14.76 1.16 13.544 1.064 11.816C0.808 6.984 4.84 3.592 8.712 1.992C12.616 0.359999 16.488 0.455999 18.056 2.216C19.464 3.752 19.656 5.864 18.632 8.04C18.344 8.712 17.928 9.352 17.448 9.896C14.024 9.448 11.496 9.896 9.704 10.568C9.544 9.096 10.248 7.176 10.6 6.44C10.696 6.184 10.6 5.928 10.376 5.8C10.152 5.704 9.896 5.768 9.768 5.992L6.088 13.032C5.96 13.224 6.056 13.512 6.248 13.64C6.44 13.768 6.632 13.736 6.856 13.512C6.888 13.48 7.56 12.648 9.096 11.88C9.128 11.944 9.16 12.008 9.192 12.072C9.736 12.968 10.696 13.448 12.04 13.512C14.056 13.608 16.2 12.584 17.8 10.888C17.928 10.92 18.056 10.92 18.152 10.952C20.808 11.4 22.472 12.84 22.952 15.144ZM43.7918 8.904C44.1758 12.168 43.5038 16.904 42.0638 21.224C40.6878 25.32 38.8638 28.264 37.5198 28.552C37.1998 28.648 37.0078 28.648 36.8478 28.648C33.7438 28.648 33.3918 22.824 33.3598 21.608L35.4718 21.544C35.7278 21.544 35.9518 21.352 35.9198 21.064C35.9198 20.808 35.7278 20.616 35.4398 20.616L30.1278 20.744C29.8718 20.744 29.6478 20.968 29.6798 21.224C29.6798 21.48 29.8718 21.672 30.1278 21.672C30.1278 21.672 30.1278 21.672 30.1598 21.672L32.3998 21.64C32.3358 23.592 31.7598 27.976 29.6478 28.072C29.4558 28.072 28.9758 27.976 28.1758 26.856C25.4557 23.112 22.1917 11.592 23.7278 6.888C24.2718 5.32 25.1358 4.392 26.1598 4.392C28.3358 4.392 31.0558 8.04 31.8238 15.048C31.9518 16.392 32.0158 17.288 32.0158 17.32C32.0158 17.576 32.3038 17.736 32.5278 17.704C32.7838 17.704 32.9758 17.48 32.9438 17.224C32.9118 16.456 32.7838 15.688 32.7517 14.984C32.6238 12.584 32.8478 8.232 35.1518 5.768C36.2718 4.552 37.7758 3.912 39.6638 3.848C42.0318 3.784 43.4078 5.48 43.7918 8.904ZM65.3158 13.576C66.0838 18.152 65.5078 22.024 63.8438 23.976C63.0438 24.936 61.9878 25.416 60.7397 25.416C56.4198 25.416 56.3558 18.696 56.3558 18.632C56.3558 18.408 56.1958 18.216 55.9718 18.184C55.7158 18.152 55.5238 18.28 55.4598 18.504C55.4278 18.568 53.7318 24.488 51.0758 26.92C50.2758 27.656 49.2838 28.072 48.2918 28.072C46.2118 28.072 43.8117 26.216 43.8117 21.064C43.8117 17.576 45.4118 12.968 47.9718 9C50.4998 5.096 53.3478 2.664 55.4278 2.664C59.9718 2.664 64.3238 7.464 65.3158 13.576ZM56.7398 15.112L57.3798 9.8C57.4118 9.544 57.2198 9.32 56.9638 9.288C56.7078 9.256 56.4838 9.448 56.4518 9.704L55.8118 14.984C55.7798 15.24 55.9718 15.496 56.2278 15.528C56.2598 15.528 56.2598 15.528 56.2918 15.528C56.5158 15.528 56.7078 15.336 56.7398 15.112ZM86.448 8.904C86.832 12.168 86.16 16.904 84.72 21.224C83.344 25.32 81.52 28.264 80.176 28.552C79.856 28.648 79.664 28.648 79.504 28.648C76.4 28.648 76.048 22.824 76.016 21.608L78.128 21.544C78.384 21.544 78.608 21.352 78.576 21.064C78.576 20.808 78.384 20.616 78.096 20.616L72.784 20.744C72.528 20.744 72.304 20.968 72.336 21.224C72.336 21.48 72.528 21.672 72.784 21.672C72.784 21.672 72.784 21.672 72.816 21.672L75.056 21.64C74.992 23.592 74.416 27.976 72.304 28.072C72.112 28.072 71.632 27.976 70.832 26.856C68.112 23.112 64.848 11.592 66.384 6.888C66.928 5.32 67.792 4.392 68.816 4.392C70.992 4.392 73.712 8.04 74.48 15.048C74.608 16.392 74.672 17.288 74.672 17.32C74.672 17.576 74.96 17.736 75.184 17.704C75.44 17.704 75.632 17.48 75.6 17.224C75.568 16.456 75.44 15.688 75.408 14.984C75.28 12.584 75.504 8.232 77.808 5.768C78.928 4.552 80.432 3.912 82.32 3.848C84.688 3.784 86.064 5.48 86.448 8.904Z" fill="white"/>
</svg>
